<svg width="30" height="24" viewBox="0 0 30 24" fill="none" xmlns="http://www.w3.org/2000/svg">
<path d="M2.25127 18.9597C1.96561 18.96 1.69175 19.0738 1.48975 19.2761C1.28776 19.4785 1.17415 19.7527 1.17383 20.0389V22.5635C1.17415 22.8496 1.28776 23.1239 1.48975 23.3262C1.69175 23.5285 1.96561 23.6423 2.25127 23.6426H3.6179C3.90356 23.6423 4.17743 23.5285 4.37942 23.3262C4.58141 23.1239 4.69503 22.8496 4.69535 22.5635V20.0389C4.69503 19.7527 4.58141 19.4785 4.37942 19.2761C4.17743 19.0738 3.90356 18.96 3.6179 18.9597H2.25127Z" fill="#3F3D56"/>
<path d="M27.5139 23.7266H26.1472C25.8394 23.7263 25.5442 23.6036 25.3265 23.3855C25.1088 23.1675 24.9863 22.8719 24.986 22.5635V20.0388C24.9863 19.7305 25.1088 19.4348 25.3265 19.2168C25.5442 18.9987 25.8394 18.8761 26.1472 18.8757H27.5139C27.8218 18.8761 28.1169 18.9987 28.3347 19.2168C28.5524 19.4348 28.6748 19.7305 28.6752 20.0388V22.5635C28.6748 22.8719 28.5524 23.1675 28.3347 23.3855C28.1169 23.6036 27.8218 23.7263 27.5139 23.7266Z" fill="#3F3D56"/>
<path d="M26.6071 21.7052H3.07414C2.00315 21.7052 1.13184 21.0728 1.13184 20.2956V15.7633L2.2999 14.5312H27.6085L28.5494 15.7659V20.2956C28.5494 21.0728 27.6781 21.7052 26.6071 21.7052Z" fill="#CCCCCC"/>
<path d="M27.4988 16.7986H2.43415L2.17944 12.8869L2.34152 12.4866L3.28368 10.1646H26.4796L27.7535 12.8014L27.4988 16.7986Z" fill="#CCCCCC"/>
<path d="M27.7109 12.8098L27.5239 15.7489H22.0094V13.5655L27.5541 12.4856L27.7109 12.8098Z" fill="white"/>
<path d="M7.83967 13.5655V15.7489H2.40808L2.22192 12.8937L2.38043 12.5024L7.83967 13.5655Z" fill="white"/>
<path d="M26.3398 10.8363H3.42322L5.86744 2.67629C5.96712 2.33928 6.17242 2.04334 6.45298 1.83218C6.73354 1.62103 7.07448 1.50588 7.42542 1.50375L22.6023 1.35896C22.969 1.3554 23.3263 1.47485 23.6174 1.69829C23.9085 1.92172 24.1165 2.23628 24.2084 2.59187L26.3398 10.8363Z" fill="#CCCCCC"/>
<path d="M24.5756 10.0647L5.18364 9.83443C5.15913 9.83414 5.13502 9.82809 5.11327 9.81677C5.09151 9.80545 5.07271 9.78918 5.05837 9.76925C5.04404 9.74933 5.03457 9.72632 5.03074 9.70206C5.0269 9.67781 5.0288 9.65299 5.03629 9.62961L6.89531 3.82046C6.90544 3.7888 6.92536 3.76118 6.95217 3.74158C6.97899 3.72199 7.01133 3.71143 7.04453 3.71143H22.6419C22.6751 3.71143 22.7074 3.72198 22.7342 3.74156C22.761 3.76115 22.7809 3.78875 22.7911 3.8204L24.7267 9.85985C24.7343 9.88353 24.7361 9.90869 24.7321 9.93323C24.7281 9.95778 24.7183 9.98102 24.7035 10.001C24.6888 10.021 24.6695 10.0373 24.6472 10.0483C24.625 10.0594 24.6005 10.065 24.5756 10.0647Z" fill="white"/>
<path d="M17.495 2.35483H12.2682C12.2241 2.35483 12.1842 2.3114 12.1639 2.24145C12.1437 2.16983 12.1466 2.09366 12.1722 2.0238L12.6033 0.932118C12.6252 0.876476 12.6611 0.843262 12.6992 0.843262H17.064C17.1021 0.843262 17.138 0.876476 17.1599 0.932118L17.591 2.0238C17.6166 2.09366 17.6195 2.16983 17.5993 2.24145C17.579 2.3114 17.5391 2.35483 17.495 2.35483Z" fill="#6C63FF"/>
<path d="M3.43767 10.6685H0V9.91176C0.000272903 9.66712 0.0974301 9.43257 0.270152 9.25958C0.442874 9.08659 0.677057 8.98929 0.921323 8.98901H3.43767V10.6685Z" fill="#CCCCCC"/>
<path d="M29.7652 10.6685H26.3275V8.98901H28.8439C29.0881 8.98929 29.3223 9.08659 29.495 9.25958C29.6678 9.43257 29.7649 9.66712 29.7652 9.91176V10.6685Z" fill="#CCCCCC"/>
</svg>
