<?xml version="1.0" encoding="utf-8"?>
<!-- Generator: Adobe Illustrator 23.0.3, SVG Export Plug-In . SVG Version: 6.00 Build 0)  -->
<svg version="1.1" id="Layer_1" xmlns="http://www.w3.org/2000/svg" xmlns:xlink="http://www.w3.org/1999/xlink" x="0px" y="0px"
	 viewBox="0 0 30 21" style="enable-background:new 0 0 30 21;" xml:space="preserve">
<style type="text/css">
	.st0{fill:#C4C4C4;}
</style>
<path class="st0" d="M25.5,7.5h-0.8l-5.1-6.3C19.1,0.5,18.2,0,17.3,0h-10C6,0,4.9,0.7,4.5,1.9L2.3,7.6C0.9,8,0,9.1,0,10.5v5.2
	c0,0.4,0.3,0.8,0.8,0.8H3C3,19,5,21,7.5,21c2.5,0,4.5-2,4.5-4.5h6c0,2.5,2,4.5,4.5,4.5c2.5,0,4.5-2,4.5-4.5h2.3
	c0.4,0,0.8-0.3,0.8-0.8V12C30,9.5,28,7.5,25.5,7.5z M7.5,18.7c-1.3,0-2.3-1-2.3-2.3c0-1.2,1-2.2,2.3-2.2c1.2,0,2.3,1,2.3,2.2
	C9.8,17.8,8.7,18.7,7.5,18.7z M10.9,7.5H5.4L7.3,3h3.6V7.5z M13.1,7.5V3h4.2l3.6,4.5H13.1z M22.5,18.7c-1.3,0-2.3-1-2.3-2.3
	c0-1.2,1-2.2,2.3-2.2c1.2,0,2.3,1,2.3,2.2C24.8,17.8,23.7,18.7,22.5,18.7z"/>
</svg>
