<svg width="21" height="25" viewBox="0 0 21 25" fill="none" xmlns="http://www.w3.org/2000/svg">
<path d="M20.4375 8.4707C20.7188 8.4707 21 8.23633 21 7.9082V6.2207C21 5.00195 19.9688 3.9707 18.75 3.9707H16.5V1.5332C16.5 1.25195 16.2188 0.970703 15.9375 0.970703H14.0625C13.7344 0.970703 13.5 1.25195 13.5 1.5332V3.9707H7.5V1.5332C7.5 1.25195 7.21875 0.970703 6.9375 0.970703H5.0625C4.73438 0.970703 4.5 1.25195 4.5 1.5332V3.9707H2.25C0.984375 3.9707 0 5.00195 0 6.2207V7.9082C0 8.23633 0.234375 8.4707 0.5625 8.4707H20.4375ZM0.5625 9.9707C0.234375 9.9707 0 10.252 0 10.5332V22.7207C0 23.9863 0.984375 24.9707 2.25 24.9707H18.75C19.9688 24.9707 21 23.9863 21 22.7207V10.5332C21 10.252 20.7188 9.9707 20.4375 9.9707H0.5625ZM12.6094 17.4707L14.8594 19.7676C15.0938 19.9551 15.0938 20.3301 14.8594 20.5645L13.5469 21.877C13.3125 22.1113 12.9375 22.1113 12.75 21.877L10.5 19.627L8.20312 21.877C8.01562 22.1113 7.64062 22.1113 7.40625 21.877L6.09375 20.5645C5.85938 20.3301 5.85938 19.9551 6.09375 19.7676L8.34375 17.4707L6.09375 15.2207C5.85938 15.0332 5.85938 14.6582 6.09375 14.4238L7.40625 13.1113C7.64062 12.877 8.01562 12.877 8.20312 13.1113L10.5 15.3613L12.75 13.1113C12.9375 12.877 13.3125 12.877 13.5469 13.1113L14.8594 14.4238C15.0938 14.6582 15.0938 15.0332 14.8594 15.2207L12.6094 17.4707Z" fill="#C4C4C4"/>
</svg>
