<?xml version="1.0" encoding="utf-8"?>
<!-- Generator: Adobe Illustrator 23.0.3, SVG Export Plug-In . SVG Version: 6.00 Build 0)  -->
<svg version="1.1" id="Layer_1" xmlns="http://www.w3.org/2000/svg" xmlns:xlink="http://www.w3.org/1999/xlink" x="0px" y="0px"
	 viewBox="0 0 21 24" style="enable-background:new 0 0 21 24;" xml:space="preserve">
<style type="text/css">
	.st0{fill:#C4C4C4;}
</style>
<path class="st0" d="M18.8,12H7.1V7.2c0-1.8,1.5-3.4,3.3-3.4c1.9,0,3.4,1.5,3.4,3.4v0.8C13.9,8.5,14.3,9,15,9h1.5
	c0.6,0,1.1-0.5,1.1-1.1V7.1c0-3.9-3.2-7.1-7.2-7.1C6.5,0,3.4,3.3,3.4,7.2V12H2.3C1,12,0,13,0,14.2v7.5C0,23,1,24,2.3,24h16.5
	c1.2,0,2.3-1,2.3-2.3v-7.5C21,13,20,12,18.8,12z"/>
</svg>
