<?xml version="1.0" encoding="utf-8"?>
<!-- Generator: Adobe Illustrator 23.0.3, SVG Export Plug-In . SVG Version: 6.00 Build 0)  -->
<svg version="1.1" id="Layer_1" xmlns="http://www.w3.org/2000/svg" xmlns:xlink="http://www.w3.org/1999/xlink" x="0px" y="0px"
	 viewBox="0 0 24 18" style="enable-background:new 0 0 24 18;" xml:space="preserve">
<style type="text/css">
	.st0{fill:#C4C4C4;}
</style>
<path class="st0" d="M23.5,6c-1.1,0.8-2.4,1.9-7.2,5.3c-0.9,0.7-2.7,2.3-4.3,2.3c-1.7,0-3.4-1.5-4.4-2.3C2.9,7.8,1.5,6.8,0.4,6
	C0.2,5.8,0,6,0,6.2v9.6C0,17,1,18,2.3,18h19.5c1.2,0,2.3-1,2.3-2.3V6.2C24,6,23.7,5.8,23.5,6z M12,12c1.1,0,2.6-1.4,3.4-1.9
	c6.2-4.5,6.7-4.9,8.1-6C23.8,3.8,24,3.5,24,3.1V2.2C24,1,23,0,21.8,0H2.3C1,0,0,1,0,2.2v0.9C0,3.5,0.1,3.8,0.4,4
	c1.4,1.1,1.9,1.5,8.1,6C9.3,10.6,10.9,12,12,12z"/>
</svg>
