<?xml version="1.0" encoding="utf-8"?>
<!-- Generator: Adobe Illustrator 23.0.3, SVG Export Plug-In . SVG Version: 6.00 Build 0)  -->
<svg version="1.1" id="Layer_1" xmlns="http://www.w3.org/2000/svg" xmlns:xlink="http://www.w3.org/1999/xlink" x="0px" y="0px"
	 viewBox="0 0 24 24" style="enable-background:new 0 0 24 24;" xml:space="preserve">
<style type="text/css">
	.st0{fill:#C4C4C4;}
</style>
<path class="st0" d="M23.3,17L18,14.7c-0.1,0-0.3-0.1-0.5-0.1c-0.3,0-0.7,0.2-0.8,0.4l-2.3,2.9c-3.7-1.7-6.6-4.6-8.3-8.3L9,7.3
	c0.2-0.2,0.4-0.5,0.4-0.9c0-0.1,0-0.3-0.1-0.4L7,0.7C6.8,0.3,6.4,0,6,0c0,0-0.1,0-0.2,0L0.8,1.2C0.3,1.3,0,1.7,0,2.2
	C0,14.3,9.7,24,21.8,24c0.5,0,0.9-0.3,1.1-0.8l1.1-4.9c0-0.1,0-0.2,0-0.2C24,17.6,23.7,17.2,23.3,17z"/>
</svg>
