<?xml version="1.0" encoding="utf-8"?>
<!-- Generator: Adobe Illustrator 23.0.3, SVG Export Plug-In . SVG Version: 6.00 Build 0)  -->
<svg version="1.1" id="Layer_1" xmlns="http://www.w3.org/2000/svg" xmlns:xlink="http://www.w3.org/1999/xlink" x="0px" y="0px"
	 viewBox="0 0 18.7 24" style="enable-background:new 0 0 18.7 24;" xml:space="preserve">
<style type="text/css">
	.st0{fill:#FFFFFF;fill-opacity:0.86;}
</style>
<path class="st0" d="M5.2,24c0.7,0,1.1-0.5,1.1-1.1V6h2.3c1,0,1.5-1.2,0.8-1.9L5.7,0.4c-0.4-0.5-1.1-0.5-1.5,0L0.4,4.1
	C-0.4,4.8,0.1,6,1.1,6h2.3v16.9c0,0.7,0.5,1.1,1.1,1.1H5.2z M12.4,1.1V18h-2.3c-1,0-1.5,1.2-0.8,1.9l3.8,3.8c0.4,0.5,1.1,0.5,1.5,0
	l3.8-3.8c0.7-0.7,0.2-1.9-0.8-1.9h-2.3V1.1c0-0.6-0.5-1.1-1.1-1.1h-0.8C12.9,0,12.4,0.5,12.4,1.1z"/>
</svg>
