<?xml version="1.0" encoding="utf-8"?>
<!-- Generator: Adobe Illustrator 23.0.3, SVG Export Plug-In . SVG Version: 6.00 Build 0)  -->
<svg version="1.1" id="Layer_1" xmlns="http://www.w3.org/2000/svg" xmlns:xlink="http://www.w3.org/1999/xlink" x="0px" y="0px"
	 viewBox="0 0 23.3 23.2" style="enable-background:new 0 0 23.3 23.2;" xml:space="preserve">
<style type="text/css">
	.st0{fill:#C4C4C4;}
</style>
<path class="st0" d="M11.6,0C5.2,0,0,5.2,0,11.6C0,18,5.2,23.2,11.6,23.2c6.4,0,11.6-5.2,11.6-11.6C23.3,5.2,18,0,11.6,0z
	 M15.9,14.7L15,15.8c-0.1,0.2-0.3,0.3-0.6,0.3c-0.1,0-0.3-0.1-0.4-0.2l-3.1-2.3c-0.5-0.3-0.7-0.8-0.7-1.5V4.9c0-0.4,0.3-0.8,0.8-0.8
	h1.5c0.4,0,0.8,0.4,0.8,0.8v6.7l2.7,2c0.1,0.1,0.3,0.3,0.3,0.6C16.1,14.4,16,14.6,15.9,14.7z"/>
</svg>
